<svg id="Layer_2" enable-background="new 0 0 512 512" height="512" viewBox="0 0 512 512" width="512" xmlns="http://www.w3.org/2000/svg"><g><g><path d="m10 232h492v230h-492z" fill="#edeff1"/></g><g><path d="m122 412h222v30h-222z" fill="#d3d3d3"/></g><g><path d="m30 412h36v30h-36z" fill="#d3d3d3"/></g><g><path d="m76 412h36v30h-36z" fill="#d3d3d3"/></g><g><path d="m104 372h36v30h-36z" fill="#6e83b7"/></g><g><path d="m30 372h64v30h-64z" fill="#d3d3d3"/></g><g><path d="m334 372h56v30h-56z" fill="#6e83b7"/></g><g><path d="m30 332h50v30h-50z" fill="#d3d3d3"/></g><g><path d="m446 412h36v30h-36z" fill="#d3d3d3"/></g><g><path d="m446 372h36v30h-36z" fill="#d3d3d3"/></g><g><path d="m446 332h36v30h-36z" fill="#d3d3d3"/></g><g><path d="m446 292h36v30h-36z" fill="#d3d3d3"/></g><g><path d="m400 412h36v30h-36z" fill="#d3d3d3"/></g><g><path d="m400 372h36v30h-36z" fill="#d3d3d3"/></g><g><path d="m354 412h36v30h-36z" fill="#d3d3d3"/></g><g><path d="m90 332h36v30h-36z" fill="#6e83b7"/></g><g><path d="m30 292h36v30h-36z" fill="#d3d3d3"/></g><g><path d="m30 252h30v30h-30z" fill="#d3d3d3"/></g><g><path d="m70 252h30v30h-30z" fill="#d3d3d3"/></g><g><path d="m110 252h30v30h-30z" fill="#d3d3d3"/></g><g><path d="m150 252h30v30h-30z" fill="#d3d3d3"/></g><g><path d="m190 252h30v30h-30z" fill="#d3d3d3"/></g><g><path d="m230 252h30v30h-30z" fill="#d3d3d3"/></g><g><path d="m270 252h30v30h-30z" fill="#d3d3d3"/></g><g><path d="m310 252h30v30h-30z" fill="#d3d3d3"/></g><g><path d="m350 252h30v30h-30z" fill="#d3d3d3"/></g><g><path d="m390 252h30v30h-30z" fill="#d3d3d3"/></g><g><path d="m430 252h52v30h-52z" fill="#d3d3d3"/></g><g><path d="m136 332h36v30h-36z" fill="#6e83b7"/></g><g><path d="m182 332h36v30h-36z" fill="#6e83b7"/></g><g><path d="m228 332h36v30h-36z" fill="#6e83b7"/></g><g><path d="m274 332h36v30h-36z" fill="#6e83b7"/></g><g><path d="m320 332h36v30h-36z" fill="#6e83b7"/></g><g><path d="m76 292h36v30h-36z" fill="#6e83b7"/></g><g><path d="m122 292h36v30h-36z" fill="#6e83b7"/></g><g><path d="m168 292h36v30h-36z" fill="#6e83b7"/></g><g><path d="m214 292h36v30h-36z" fill="#6e83b7"/></g><g><path d="m260 292h36v30h-36z" fill="#6e83b7"/></g><g><path d="m306 292h36v30h-36z" fill="#6e83b7"/></g><g><path d="m352 292h36v30h-36z" fill="#6e83b7"/></g><g><path d="m398 292v40h-31v30h69v-70z" fill="#6e83b7"/></g><g><path d="m150 372h36v30h-36z" fill="#6e83b7"/></g><g><path d="m196 372h36v30h-36z" fill="#6e83b7"/></g><g><path d="m242 372h36v30h-36z" fill="#6e83b7"/></g><g><path d="m288 372h36v30h-36z" fill="#6e83b7"/></g><g><path d="m241 202h30v30h-30z" fill="#d3d3d3"/></g><g><path d="m266 202h-20v-9c0-16.542 13.458-30 30-30h37c11.58 0 21-9.421 21-21s-9.42-21-21-21h-37c-16.542 0-30-13.458-30-30v-42h20v42c0 5.514 4.486 10 10 10h37c22.607 0 41 18.393 41 41s-18.393 41-41 41h-37c-5.514 0-10 4.486-10 10z" fill="#edeff1"/></g></g></svg>